<?xml version="1.0" standalone="no"?><!DOCTYPE svg PUBLIC "-//W3C//DTD SVG 1.1//EN" "http://www.w3.org/Graphics/SVG/1.1/DTD/svg11.dtd"><svg t="1699364021757" class="icon" viewBox="0 0 1041 1024" version="1.1" xmlns="http://www.w3.org/2000/svg" p-id="4608" xmlns:xlink="http://www.w3.org/1999/xlink" width="203.3203125" height="200"><path d="M452.993724 809.572048c-74.688388 0-206.396942-23.691478-261.810907-154.998481-87.939553-206.396942-4.818606-358.584571 93.561259-426.04505 234.907026-162.22639 451.74428-58.626369 515.189255-5.220156 36.139542 30.517836 57.823268 65.051176 65.051176 103.198471 0.803101 3.212404-1.204651 6.424808-4.818605 7.227908-3.212404 0.803101-6.424808-1.204651-7.227909-4.818605v-0.401551c-6.826358-35.336441-27.305432-67.460479-61.035672-95.970562-61.838773-51.800011-271.849669-151.786078-500.733437 6.023257C196.804523 304.020005 116.89598 450.585927 202.024679 650.959612c30.919386 72.680635 88.341104 119.26049 170.658951 138.534913 65.854277 15.258918 122.071343 6.424808 128.0946 4.818606 3.212404-1.204651 6.826358 0.40155 7.629459 3.613954 1.204651 3.212404-0.40155 6.826358-3.613954 7.629459h-0.401551c-16.86512 2.810853-34.13179 4.015505-51.39846 4.015504z" fill="#757575" p-id="4609"></path><path d="M140.587457 438.940964c-19.675973 0-38.548845-11.243413-52.603111-20.880625-8.031009-5.621707-15.660468-11.644964-23.289928-17.668221-13.652716-11.243413-26.502331-21.683725-41.359698-28.108533l-2.810854-1.204651C13.295958 367.46498 4.060297 363.449475 0.847893 353.812264c-2.007752-6.023257-1.204651-15.660468 10.841863-26.903882 17.668221-15.258918 38.548845-23.691478 54.610864-29.714735s30.919386-9.637211 43.769002-12.849615c18.872872-4.417055 38.950396-8.031009 59.027919-2.810853 22.486826 5.220156 36.942643 19.675973 40.556597 39.351946 0.40155 3.212404-1.606202 6.424808-4.818605 6.826358-3.212404 0.40155-6.424808-1.606202-6.826358-4.818605-2.409303-14.857367-14.054266-25.69923-31.722488-29.714735s-36.139542-1.204651-53.406212 2.810853c-14.455817 3.212404-28.510083 7.629459-42.56435 12.448065-15.258918 5.621707-34.934891 13.652716-50.595359 27.305432-4.015505 4.015505-8.83411 9.637211-7.227909 14.455817s7.227908 7.227908 13.251166 10.038761l2.409302 1.606202c16.463569 7.227908 30.517836 18.872872 43.769002 29.714735 7.227908 6.023257 14.857367 12.046514 22.486826 17.26667 28.108533 19.274423 47.784506 23.289927 64.649626 13.251166 2.810853-2.007752 6.424808-1.204651 8.43256 1.606202s1.204651 6.424808-1.606202 8.43256c-0.40155 0-0.40155 0.40155-0.803101 0.40155-7.227908 4.417055-15.660468 6.424808-24.494579 6.424808zM748.534871 196.80603c-2.007752 0-4.015505-0.803101-5.220157-2.810854-1.606202-2.810853-0.803101-6.424808 2.007753-8.43256 12.046514-7.629459 18.872872-53.004662-2.007753-85.9318-9.637211-15.258918-14.054266-31.320937-18.471321-47.382956-2.007752-6.826358-3.613954-13.652716-6.023257-20.077524l-0.401551-0.8031c-1.204651-5.220156-3.613954-10.038762-6.826358-14.455817-2.409303-3.212404-6.826358-4.818606-10.841863-4.015505-2.007752 1.204651-4.015505 2.409303-5.621706 4.015505-7.227908 6.424808-14.054266 12.849615-20.880625 19.274422s-14.054266 12.849615-20.880624 19.274423c-1.606202 1.606202-4.015505 3.212404-6.826358 5.621706-29.714735 23.691478-57.421717 52.201561-39.351946 84.72715 1.204651 2.810853 0 6.424808-2.810854 8.031009-2.810853 1.204651-6.023257 0.40155-7.629459-2.409303-25.29768-45.375203 22.085276-83.522498 42.56435-99.986067 2.409303-2.007752 4.818606-4.015505 6.023257-5.220156 7.227908-6.424808 14.054266-12.849615 20.880625-19.274423s14.054266-12.849615 20.880624-19.274422c2.810853-2.810853 6.424808-5.220156 10.038762-6.826358 8.83411-2.409303 18.069771 0.40155 24.093029 7.227908 4.417055 5.621707 7.629459 11.644964 9.23566 18.471322l0.401551 0.803101c2.409303 6.826358 4.417055 13.652716 6.023257 20.880624 4.417055 15.660468 8.43256 30.517836 16.86512 44.170552 22.486826 36.139542 18.069771 90.348856-2.007753 102.796921-0.803101 1.204651-2.007752 1.606202-3.212403 1.606202zM501.982881 703.161174c-63.043424 0-141.345766-23.691478-202.782988-130.503903-12.448065-21.282175-21.282175-44.170552-26.502331-67.86203-18.069771-81.916296 22.085276-171.462051 94.765911-212.82175l2.409303-1.204651c63.444974-36.139542 181.500813-103.198471 318.831074-42.1628 48.587607 21.683725 83.120948 59.42947 103.198471 112.835683 27.305432 71.475984 19.675973 154.195381 7.629459 179.894611-7.227908 14.857367-16.86512 28.911634-27.706982 41.359698-52.201561 57.421717-111.22948 93.56126-176.280657 107.213976-3.212404 0.803101-7.227908 1.606202-11.243413 2.409303-20.077524 4.015505-48.989157 10.841863-82.317847 10.841863z m73.483737-467.003198c-84.727149 0-155.400032 40.155047-199.570585 65.051176l-2.409302 1.606202c-67.460479 38.147295-105.607774 124.079096-89.144205 199.972135 4.818606 22.888377 13.251166 44.572102 24.896129 64.649625 89.545755 155.400032 212.82175 126.889949 271.849669 113.237233 4.417055-0.803101 8.031009-2.007752 11.644964-2.409303 62.641873-13.251166 119.66204-48.186057 169.855849-103.198471 10.440312-11.644964 19.274423-24.494579 26.100781-38.147294 8.83411-19.274423 19.274423-98.379865-8.03101-170.658951-18.872872-50.193809-51.800011-85.53025-97.175214-106.009324-33.73024-16.062019-70.672883-24.093028-108.017076-24.093028z" fill="#757575" p-id="4610"></path><path d="M312.852609 449.381276c-5.621707 0-10.440312-2.810853-13.652716-7.227909-1.204651-0.803101-2.007752-2.007752-2.810853-3.212403-6.023257-6.023257-16.463569-16.062019-19.274422-26.903882-0.803101-3.212404 1.204651-6.424808 4.417055-7.227908 3.212404-0.803101 6.424808 1.204651 7.227908 4.417055 2.007752 7.629459 11.243413 16.463569 16.062019 21.282175l4.417055 4.417055c1.204651 1.606202 3.212404 2.810853 4.417055 2.409303h0.401551c0.803101 0 2.007752-1.204651 3.613954-2.409303 0.803101-0.803101 1.606202-1.204651 2.409303-2.007752 3.212404-2.409303 6.826358-4.417055 10.841863-6.023257 10.440312-6.424808 20.077524-14.857367 28.108533-24.093029 0.40155-0.40155 1.204651-1.204651 1.204651-1.606202-0.40155-0.803101-0.803101-2.007752-1.204651-2.810853-5.621707-11.243413-11.644964-21.683725-16.86512-31.722487s-11.243413-20.479074-17.26667-32.124038c-1.204651-3.212404 0-6.424808 3.212403-8.031009 2.810853-1.204651 6.023257 0 7.629459 2.810853 5.621707 11.243413 11.644964 21.683725 16.86512 31.722487s11.243413 20.479074 17.26667 32.124038c2.409303 3.212404 3.212404 7.629459 2.007753 11.644964-0.803101 2.409303-2.409303 4.818606-4.417056 6.424807-8.83411 10.440312-19.274423 19.274423-30.919386 26.502331l-0.40155 0.401551c-3.212404 1.204651-6.023257 2.810853-8.834111 4.818605-0.803101 0.40155-1.606202 0.803101-2.007752 1.606202-2.409303 2.810853-6.023257 4.417055-9.637211 4.818606h-2.810854zM408.421622 390.754907c-2.810853 0-5.621707-0.40155-8.43256-1.204651-2.409303-1.204651-4.015505-2.810853-5.220156-5.220156 0-0.40155 0-0.40155-0.401551-0.803101-20.880624-18.872872-38.548845-59.83102-43.367451-71.877535-1.204651-3.212404 0-6.826358 3.212404-8.031009s6.826358 0 8.031009 3.212404c9.637211 23.691478 25.29768 53.807763 40.556598 67.862029 1.606202 1.204651 2.007752 2.810853 2.810853 3.613955 0 0.40155 0 0.40155 0.401551 0.40155h2.409303c10.841863-1.606202 21.282175-5.220156 30.919386-10.038762 20.077524-8.83411 37.745744-17.668221 54.610864-26.903881 2.810853-1.204651 5.220156-2.810853 7.227908-5.220156 3.613954-4.417055 1.606202-12.448065-0.803101-19.274423l-0.40155-2.007752c-5.621707-18.069771-12.849615-42.56435-27.305432-61.838773-2.007752-2.810853-1.606202-6.424808 1.204651-8.43256s6.424808-1.606202 8.43256 1.204652c15.660468 21.282175 23.691478 46.981405 29.313185 65.452726l0.40155 1.606202c2.007752 6.023257 6.826358 20.479074-1.606202 30.919386-3.212404 3.212404-6.826358 6.023257-10.841863 8.03101-16.86512 9.235661-34.934891 18.471322-55.413965 27.305432-11.243413 5.621707-23.289927 9.235661-35.737991 11.243413zM552.578241 328.916135c-8.43256 0.40155-16.86512-2.810853-23.289928-8.43256-4.818606-5.621707-8.031009-12.046514-9.23566-19.274423v-0.40155c-1.606202-6.826358-5.220156-16.463569-8.43256-26.502331s-7.227908-21.683725-9.235661-29.313185c-0.803101-3.212404 1.204651-6.424808 4.417055-7.227908 3.212404-0.803101 6.424808 1.204651 7.227908 4.417055 1.606202 7.227908 5.621707 18.069771 8.834111 28.108533s6.826358 20.077524 8.83411 27.305432v0.40155c0.803101 5.220156 3.212404 10.038762 6.424808 14.054267 6.826358 7.227908 19.274423 5.220156 30.517836 2.810853 8.031009-2.007752 16.062019-3.613954 24.093028-5.220156s16.062019-3.212404 24.093028-5.220156c1.606202 0 3.212404-0.803101 4.417055-1.606202 0.803101-1.606202 1.204651-3.212404 1.204652-5.220156 0-21.282175-3.613954-42.162799-10.038762-62.240323-1.204651-3.212404 0-6.424808 3.212404-8.03101 3.212404-1.204651 6.424808 0 8.031009 3.212404 0 0.40155 0 0.40155 0.401551 0.803101 6.826358 21.683725 10.440312 44.170552 10.841862 66.657378 0 4.818606-1.606202 10.038762-4.818605 13.652716l-0.401551 0.401551c-2.810853 2.007752-6.424808 3.613954-10.038762 4.015505-7.629459 1.606202-15.660468 3.613954-23.691477 5.220156s-16.062019 3.212404-24.093029 5.220156c-6.424808 1.606202-12.849615 2.409303-19.274422 2.409303zM441.750311 513.227801c-4.417055 0-8.83411-1.606202-12.046514-4.417055-8.43256-4.818606-15.660468-11.243413-22.085276-18.471322-6.826358-7.227908-11.644964-16.062019-13.251166-25.69923-1.606202-11.243413 2.409303-20.880624 10.038762-24.896129s16.062019-2.007752 23.691478 5.220156c9.235661 9.235661 17.668221 19.675973 24.494578 30.919386 3.613954 5.621707 5.621707 12.046514 6.023257 18.872872v0.401551c-0.40155 8.031009-6.023257 16.86512-15.258917 17.66822-0.40155 0-0.803101 0.40155-1.606202 0.401551z m-35.336442-50.193809c1.606202 7.227908 4.818606 14.054266 10.038762 19.274423 5.621707 6.424808 12.046514 11.644964 19.274423 16.062018l0.40155 0.401551c1.606202 1.606202 4.015505 2.409303 6.023257 2.007752 2.007752 0 4.015505-3.212404 4.417055-6.424807-0.40155-4.417055-2.007752-8.83411-4.417055-12.448065-6.023257-10.440312-13.652716-20.077524-22.486826-28.510083-3.613954-3.212404-7.227908-4.417055-9.637212-3.212404-3.613954 3.613954-4.818606 8.43256-3.613954 12.849615zM657.382914 427.296c-4.417055 0-8.43256-1.204651-12.046515-3.613954-14.455817-8.43256-24.896129-22.486826-29.313184-38.950396-1.204651-4.417055-5.220156-20.880624 3.613954-28.911634 3.212404-2.810853 8.83411-5.621707 18.872872-2.409303 7.227908 3.212404 13.652716 8.83411 18.471322 15.258918 0.803101 1.606202 2.007752 3.212404 3.212404 4.417055 2.810853 4.015505 5.621707 8.031009 8.031009 12.448065 4.417055 6.424808 7.227908 14.054266 7.629459 21.683725-0.803101 10.038762-8.031009 20.077524-18.471321 20.077524z m-6.424808-14.054266c2.007752 1.204651 4.015505 2.007752 6.424808 2.007752 3.212404 0 5.621707-4.417055 6.023257-8.43256-0.40155-5.621707-2.409303-10.841863-6.023257-15.258918-2.409303-4.015505-5.220156-8.031009-7.629459-11.644964-1.204651-1.606202-2.007752-2.810853-3.212404-4.417055-3.212404-4.818606-7.629459-8.43256-12.849615-10.841862-3.212404-1.204651-5.621707-1.204651-6.424808-0.401551-2.007752 1.606202-2.409303 8.83411 0 17.26667 3.613954 13.251166 12.046514 24.896129 23.691478 31.722488zM439.742558 695.130164c-0.40155 0-1.204651 0-1.606202-0.40155-9.235661-2.409303-31.320937-24.494579-40.958148-48.587607-7.227908-18.471322-6.826358-35.336441 1.606202-48.989158 8.83411-14.857367 24.494579-21.683725 36.139543-24.494578 16.86512-4.015505 34.533341-6.424808 51.80001-7.629459l23.691478-2.409303c45.776754-5.621707 109.623279-22.486826 154.596932-69.869782l2.007752-2.409303c4.015505-4.818606 8.83411-9.235661 14.054266-13.251166 22.486826-16.463569 58.224818-11.644964 79.908544 10.440313 20.479074 20.880624 21.282175 50.193809 20.479074 75.893039 0 3.212404-2.810853 6.023257-6.023257 6.023257s-6.023257-2.810853-6.023257-6.023257c0.803101-24.494579 0-49.390708-17.26667-67.058929-15.258918-15.660468-44.170552-23.691478-63.846525-8.83411-4.417055 3.613954-8.43256 7.629459-12.448065 11.644963l-2.007752 2.409303c-47.382956 50.193809-114.441884 67.86203-161.82484 73.885287-8.031009 1.204651-16.062019 2.007752-23.691478 2.409303-16.86512 1.204651-33.73024 3.613954-50.193809 7.227908-9.235661 2.409303-22.085276 7.227908-28.911634 18.872872-6.023257 10.440312-6.424808 22.486826-1.204651 36.942644 8.83411 23.289927 29.313184 41.761249 33.328689 42.9659 3.212404 1.204651 4.818606 4.417055 4.015505 7.629459-0.803101 2.007752-3.212404 3.212404-5.621707 3.613954z" fill="#757575" p-id="4611"></path><path d="M630.880583 781.463515h-5.621707c-3.212404-0.40155-6.023257-3.212404-5.621707-6.424807 0.40155-3.212404 3.212404-6.023257 6.424808-5.621707 22.486826 1.606202 45.375203-8.031009 66.255828-18.471321 17.668221-8.83411 36.139542-18.471322 51.80001-32.525588 21.282175-19.274423 36.139542-44.973653 41.359699-73.082186 8.43256-43.367451 18.872872-86.734902 29.714735-125.283747 2.409303-8.43256 4.818606-16.86512 7.629459-24.896129 4.015505-12.448065 7.629459-25.29768 10.841862-37.745745 6.826358-27.305432 11.243413-55.815515 15.258918-83.120947 4.015505-30.116285 9.637211-60.232571 16.86512-89.947306 2.409303-9.235661 9.637211-37.745744 32.525588-44.572102 17.668221-5.621707 35.336441 4.417055 44.973653 16.86512s14.054266 28.911634 17.26667 42.56435c4.417055 19.274423-0.40155 32.927139-12.046514 36.942643-9.235661 3.613954-18.872872-2.007752-24.093028-8.43256-2.810853-4.417055-4.818606-9.235661-6.826358-14.455817-1.204651-2.409303-2.409303-6.023257-3.212404-8.031009h-0.40155c-2.810853-1.606202-4.015505-5.220156-2.409303-8.03101 1.204651-2.409303 3.613954-3.613954 6.023257-3.613954 5.220156 0.40155 6.826358 4.818606 11.243413 15.660468 1.606202 4.015505 3.212404 8.031009 5.220156 11.644964 2.409303 3.212404 6.424808 5.220156 10.440312 4.417055 6.424808-2.007752 6.424808-13.652716 4.417056-22.888377-2.810853-12.448065-6.424808-26.903882-14.857368-37.745744-7.227908-8.83411-20.077524-16.463569-32.124038-12.849615-11.243413 3.613954-18.872872 15.258918-24.494578 36.139543-7.227908 29.313184-12.849615 59.027919-16.46357 88.742654-3.613954 28.510083-8.83411 56.618616-15.660468 84.325599-3.212404 13.251166-7.227908 26.100781-11.243413 38.548845-2.409303 8.031009-5.220156 16.463569-7.227909 24.494579-10.841863 38.147295-21.282175 81.514746-29.714734 124.480646-6.023257 30.919386-22.085276 58.626369-45.375204 79.506993-16.463569 14.054266-34.533341 25.29768-54.209313 34.13179-20.880624 10.038762-43.367451 19.274423-66.657378 19.274422z" fill="#757575" p-id="4612"></path><path d="M959.348868 308.03551c-2.409303 0-4.417055-0.40155-6.826358-0.803101-3.212404-0.803101-5.220156-4.015505-4.417055-7.227908 0.803101-3.212404 4.015505-5.220156 7.227908-4.417056 8.83411 2.007752 17.668221-2.810853 21.282175-11.243413 2.007752-6.424808 2.007752-12.849615 0-19.274422-1.606202-8.83411-5.621707-16.86512-11.243413-23.691478-5.220156-6.424808-13.251166-9.637211-21.282175-9.637211-7.629459 0.40155-14.054266 5.220156-16.463569 12.448064-0.803101 3.212404-4.015505 5.220156-7.227909 4.417055s-5.220156-4.015505-4.417055-7.227908c3.613954-12.448065 14.857367-21.282175 27.706982-21.282175 11.644964 0 22.888377 4.818606 30.919387 13.652716 7.227908 8.031009 12.046514 18.069771 14.054266 28.510083 2.810853 8.43256 2.810853 18.069771-0.40155 26.502331-4.818606 11.644964-16.062019 18.872872-28.911634 19.274423z" fill="#757575" p-id="4613"></path><path d="M994.283759 292.776592c-2.409303 0-4.818606-0.40155-6.826358-1.606202-3.212404-1.204651-4.417055-4.818606-3.212404-8.031009s4.818606-4.417055 8.031009-3.212404c0 0 0.40155 0 0.401551 0.401551 0.40155 0.40155 0.803101 0.40155 1.204651 0.40155 0.40155-0.40155 0.803101-0.803101 1.204652-1.606202 0.803101-1.204651 2.007752-2.409303 3.212404-3.613954 4.015505-4.417055 6.023257-10.440312 6.424807-16.463569 1.204651-18.069771-12.448065-35.737992-28.911634-37.745745-5.621707-0.40155-12.849615 1.204651-14.455817 6.023257-1.204651 3.212404-4.818606 4.417055-8.031009 3.212404-3.212404-1.204651-4.417055-4.818606-3.212404-8.031009 4.417055-10.440312 16.86512-14.455817 26.903882-13.251166 22.888377 2.810853 40.958148 25.69923 39.351946 50.59536-0.40155 8.83411-3.613954 17.668221-9.637212 24.093028l-2.810853 2.810853c-2.007752 3.613954-5.621707 6.023257-9.637211 6.023257z" fill="#757575" p-id="4614"></path><path d="M1007.133374 283.942482c-2.810853 0-5.621707-2.409303-6.023257-5.220156-0.40155-3.212404 2.007752-6.424808 5.220156-6.826358 7.629459-0.803101 14.455817-5.220156 18.872872-11.644964 4.015505-6.424808 5.220156-14.054266 2.810853-21.282175-1.606202-5.621707-5.621707-10.440312-11.243413-12.849615-4.818606-2.007752-10.841863-1.204651-14.857367 2.409303-2.409303 2.409303-6.023257 2.409303-8.43256 0-2.007752-2.007752-2.409303-5.621707-0.401551-8.03101 7.227908-7.227908 18.069771-9.235661 27.706983-5.621706 8.83411 3.613954 15.660468 10.841863 18.471322 20.077523 3.613954 10.841863 2.007752 22.486826-4.417056 31.722488-6.023257 9.235661-16.062019 15.258918-26.903881 16.463569-0.40155 0.803101-0.40155 0.803101-0.803101 0.803101zM886.266682 258.644802c-3.212404 0-5.621707-2.409303-6.023257-5.220156-4.818606-34.533341 0-69.468231 14.054267-101.190719 3.613954-8.43256 8.43256-16.062019 14.857367-22.888377 7.227908-7.227908 17.26667-11.243413 27.706982-10.440312 14.455817 2.007752 26.903882 14.857367 29.714735 31.320937 2.810853 14.455817-0.803101 28.510083-4.015504 40.958148-1.204651 4.818606-2.409303 10.038762-3.613955 15.258918s-2.409303 10.038762-3.613954 15.258918c-0.803101 3.212404-4.015505 5.220156-7.227908 4.417055-3.212404-0.803101-5.220156-4.015505-4.417056-7.227908 1.204651-5.220156 2.409303-10.038762 4.015505-15.258918s2.409303-10.038762 3.613954-15.258918c2.810853-11.243413 6.023257-23.691478 4.015505-35.737992-1.606202-9.637211-8.43256-20.479074-19.274422-21.683726-6.826358 0-13.251166 2.409303-18.069772 7.227909-5.220156 5.621707-9.235661 12.046514-12.448064 19.274422-13.251166 29.714735-17.668221 62.240323-13.251166 94.364361 0.40155 3.212404-1.606202 6.424808-4.818605 6.826358H886.266682zM893.09304 995.489917c-3.212404 0-6.023257-2.810853-6.023257-6.023258-3.212404-209.609346 21.282175-418.817141 73.082186-622.001679l1.204651-4.015505 4.015505-0.40155c9.637211-1.204651 18.471322-6.023257 24.896129-12.849615 3.212404-3.212404 5.621707-6.826358 6.826358-11.243414 0.803101-4.015505 1.204651-7.629459 1.204652-11.644963-0.40155-12.448065-4.417055-24.093028-11.644964-34.13179-2.007752-2.810853-1.606202-6.424808 1.204651-8.43256s6.424808-1.606202 8.43256 1.204651c8.83411 12.046514 13.652716 26.100781 14.054267 40.958148 0 5.220156-0.803101 10.440312-2.007753 15.258918-2.007752 6.023257-5.220156 11.644964-9.637211 16.062019-7.629459 8.031009-17.26667 13.652716-28.108533 16.062019-50.99691 200.775236-75.089938 407.573728-71.877534 614.773771 0.40155 2.810853-1.606202 6.023257-4.417055 6.424808-0.40155 0-0.803101 0.40155-1.204652 0zM440.94721 983.443402c-24.896129 0-49.792258-6.826358-69.066681-24.093028-6.023257-5.621707-11.644964-11.644964-16.46357-18.069771-40.556598-54.610864-33.73024-120.063591-26.502331-153.79383 0.803101-3.212404 4.015505-5.220156 7.227909-4.417056 3.212404 0.803101 5.220156 4.015505 4.417055 7.227909-7.227908 32.124038-13.251166 93.159709 24.093028 144.156619 4.417055 6.023257 9.637211 11.243413 14.857368 16.463569 33.328689 29.313184 85.931801 24.494579 123.275994 6.023257 10.841863-4.417055 20.479074-11.243413 28.510084-19.274422 21.282175-22.486826 23.289927-57.421717 25.297679-85.931801 0.40155-3.212404 3.212404-6.023257 6.424808-5.621707 3.212404 0.40155 6.023257 3.212404 5.621707 6.424808-2.007752 30.116285-4.417055 67.86203-28.510084 93.159709-9.235661 9.235661-20.077524 16.463569-31.722487 21.683726-20.880624 10.440312-44.170552 15.660468-67.460479 16.062018z" fill="#757575" p-id="4615"></path><path d="M467.04799 860.970509c-2.007752 0-4.015505 0-6.023257-0.401551-13.652716-1.606202-26.100781-8.43256-34.53334-19.274422-8.43256-10.841863-12.046514-24.494579-10.440313-38.147295 0.40155-3.212404 3.613954-5.621707 6.826359-5.220156s5.621707 3.613954 5.220156 6.826358c-1.204651 10.440312 1.606202 20.880624 8.031009 29.313184 6.424808 8.031009 15.660468 13.251166 26.100781 14.455817 6.023257 0.803101 12.046514 0.40155 17.66822-1.204651 4.818606-0.803101 14.054266-3.613954 18.471322-9.637212 2.007752-3.613954 3.613954-7.629459 4.417055-11.644963 1.606202-8.031009 2.007752-16.463569 2.007753-24.494579-0.40155-3.212404 2.409303-6.023257 5.621706-6.424808 3.212404-0.40155 6.023257 2.409303 6.424808 5.621707 0.40155 9.235661-0.40155 18.471322-2.007753 27.305432-1.204651 5.621707-3.212404 11.243413-6.023257 16.062019-6.424808 9.235661-17.668221 12.849615-25.69923 14.455817-5.220156 1.606202-10.440312 2.409303-16.062019 2.409303z" fill="#757575" p-id="4616"></path><path d="M503.990634 805.556544c-10.038762 0-16.062019-6.023257-20.880625-12.448065-6.023257-8.031009-10.038762-17.26667-12.448064-26.903881-3.613954-10.841863-6.826358-23.289927 0-33.32869 5.220156-7.227908 13.652716-11.644964 22.486826-11.243413 8.031009 0.40155 15.660468 3.613954 22.085276 8.43256 4.417055 3.212404 8.031009 6.826358 11.243413 11.243413 17.26667-26.100781 40.958148-47.382956 68.665131-61.838772 21.683725-10.841863 33.328689-6.023257 38.950395 0 6.424808 7.227908 8.83411 17.26667 5.621707 26.502331-2.409303 6.826358-6.023257 13.251166-10.841863 18.872872l-1.204651 2.007752c-7.227908 9.637211-14.455817 18.872872-22.085276 28.510084s-14.455817 18.471322-21.683726 28.108533c-0.803101 1.204651-2.007752 2.409303-3.613954 3.212404-2.007752 0.803101-4.417055 0.803101-6.424807-0.401551-2.409303-1.204651-4.015505-4.015505-3.613955-6.826358 0.40155-2.810853 2.409303-4.818606 5.220157-5.621706 6.424808-8.43256 13.251166-17.26667 20.077523-25.699231 7.227908-9.235661 14.455817-18.872872 21.683726-28.108533l1.204651-2.007752c4.015505-4.417055 6.826358-9.637211 8.83411-15.258918 1.606202-4.818606 0.803101-10.440312-2.409303-14.455817-6.023257-6.023257-18.471322-1.204651-25.297679 2.409303-28.911634 14.857367-52.603112 37.344194-69.066681 65.452727l-5.621707 9.637211-5.220156-9.637211c-3.212404-6.424808-7.629459-11.644964-13.251166-15.660469-4.417055-3.613954-9.637211-5.621707-15.258917-6.023257-4.818606 0-9.235661 2.007752-12.046515 5.621707-3.613954 5.621707-1.204651 14.857367 1.606202 22.888377 2.409303 8.43256 6.023257 16.062019 10.841863 23.289927 5.220156 6.826358 8.43256 8.43256 14.455817 7.227909 3.212404-0.40155 6.424808 1.606202 6.826358 4.818605 0.40155 3.212404-1.606202 6.424808-4.818606 6.826358-1.204651 0-2.810853 0.40155-4.015504 0.401551z" fill="#757575" p-id="4617"></path><path d="M595.544141 808.367397c-1.606202 0-3.212404-0.803101-4.417055-2.007752-2.409303-2.409303-2.007752-6.023257 0-8.43256h0.40155c11.243413-10.440312 25.69923-25.69923 25.699231-40.958148-1.204651-3.613954-2.810853-6.826358-5.220157-9.637212-2.810853-0.40155-4.818606-2.409303-5.220156-5.220156-0.40155-3.212404 1.606202-6.023257 4.818606-6.424807h0.40155c2.810853 0 5.621707 0.803101 7.629459 2.810853 5.220156 5.220156 8.43256 11.644964 9.235661 18.872872 0 19.675973-15.660468 36.942643-29.714735 49.792259-0.803101 0.803101-2.409303 1.204651-3.613954 1.204651z" fill="#757575" p-id="4618"></path><path d="M610.401508 822.823214c-2.409303 0-4.417055-1.204651-5.621706-3.212404-1.204651-2.810853 0-6.424808 2.810853-8.031009 9.235661-4.818606 15.258918-13.652716 16.86512-23.691478 1.204651-10.440312-0.40155-13.251166-1.204651-14.054266h-0.401551c-3.212404-0.40155-6.023257-3.212404-5.621706-6.424808 0.40155-3.212404 3.212404-6.023257 6.424807-5.621707 3.613954 0 6.826358 1.606202 8.83411 4.417056 4.818606 5.621707 4.818606 15.258918 4.015505 23.289927-1.606202 14.455817-10.440312 26.903882-23.289927 33.328689h-2.810854z" fill="#757575" p-id="4619"></path><path d="M567.034058 871.009271c-3.613954 0-7.227908-1.606202-9.235661-4.417056-1.204651-2.007752-1.606202-4.818606-0.401551-7.227908 1.606202-2.810853 5.220156-4.015505 8.03101-2.810853 0.803101 0.40155 1.606202 1.204651 2.409303 2.007752 27.305432-0.40155 54.610864-16.86512 70.271332-41.761249 2.409303-3.212404 4.015505-7.227908 4.818606-11.243413 0.40155-3.212404-0.40155-6.424808-2.810854-8.43256-1.204651-0.803101-4.417055-0.803101-4.818605 0.40155-2.007752 2.810853-5.621707 3.613954-8.43256 1.606202-2.810853-2.007752-3.613954-5.621707-1.606202-8.43256 4.818606-7.227908 15.660468-7.629459 22.085276-3.212403 5.621707 4.417055 8.43256 11.644964 7.629459 18.872872-0.803101 6.023257-2.810853 11.644964-6.424808 16.865119-17.668221 29.313184-49.792258 47.784506-81.514745 47.784507zM366.660373 1024c-3.613954-0.40155-6.023257-3.212404-6.023258-6.424808 2.007752-24.093028 2.007752-48.587607 0-72.680635-0.40155-3.212404 2.409303-6.023257 5.621707-6.424807 3.212404-0.40155 6.023257 2.409303 6.424808 5.621706 2.007752 24.896129 2.007752 49.390708 0 74.286837-0.40155 2.810853-2.810853 5.220156-6.023257 5.621707zM452.993724 809.572048c-74.688388 0-206.396942-23.691478-261.810907-154.998481-87.939553-206.396942-4.818606-358.584571 93.561259-426.04505 234.907026-162.22639 451.74428-58.626369 515.189255-5.220156 36.139542 30.517836 57.823268 65.051176 65.051176 103.198471 0.803101 3.212404-1.204651 6.424808-4.818605 7.227908-3.212404 0.803101-6.424808-1.204651-7.227909-4.818605v-0.401551c-6.826358-35.336441-27.305432-67.460479-61.035672-95.970562-61.838773-51.800011-271.849669-151.786078-500.733437 6.023257C196.804523 304.020005 116.89598 450.585927 202.024679 650.959612c30.919386 72.680635 88.341104 119.26049 170.658951 138.534913 65.854277 15.258918 122.071343 6.424808 128.0946 4.818606 3.212404-1.204651 6.826358 0.40155 7.629459 3.613954 1.204651 3.212404-0.40155 6.826358-3.613954 7.629459h-0.401551c-16.86512 2.810853-34.13179 4.015505-51.39846 4.015504z" fill="#757575" p-id="4620"></path><path d="M140.587457 438.940964c-19.675973 0-38.548845-11.243413-52.603111-20.880625-8.031009-5.621707-15.660468-11.644964-23.289928-17.668221-13.652716-11.243413-26.502331-21.683725-41.359698-28.108533l-2.810854-1.204651C13.295958 367.46498 4.060297 363.449475 0.847893 353.812264c-2.007752-6.023257-1.204651-15.660468 10.841863-26.903882 17.668221-15.258918 38.548845-23.691478 54.610864-29.714735s30.919386-9.637211 43.769002-12.849615c18.872872-4.417055 38.950396-8.031009 59.027919-2.810853 22.486826 5.220156 36.942643 19.675973 40.556597 39.351946 0.40155 3.212404-1.606202 6.424808-4.818605 6.826358-3.212404 0.40155-6.424808-1.606202-6.826358-4.818605-2.409303-14.857367-14.054266-25.69923-31.722488-29.714735s-36.139542-1.204651-53.406212 2.810853c-14.455817 3.212404-28.510083 7.629459-42.56435 12.448065-15.258918 5.621707-34.934891 13.652716-50.595359 27.305432-4.015505 4.015505-8.83411 9.637211-7.227909 14.455817s7.227908 7.227908 13.251166 10.038761l2.409302 1.606202c16.463569 7.227908 30.517836 18.872872 43.769002 29.714735 7.227908 6.023257 14.857367 12.046514 22.486826 17.26667 28.108533 19.274423 47.784506 23.289927 64.649626 13.251166 2.810853-2.007752 6.424808-1.204651 8.43256 1.606202s1.204651 6.424808-1.606202 8.43256c-0.40155 0-0.40155 0.40155-0.803101 0.40155-7.227908 4.417055-15.660468 6.424808-24.494579 6.424808zM748.534871 196.80603c-2.007752 0-4.015505-0.803101-5.220157-2.810854-1.606202-2.810853-0.803101-6.424808 2.007753-8.43256 12.046514-7.629459 18.872872-53.004662-2.007753-85.9318-9.637211-15.258918-14.054266-31.320937-18.471321-47.382956-2.007752-6.826358-3.613954-13.652716-6.023257-20.077524l-0.401551-0.8031c-1.204651-5.220156-3.613954-10.038762-6.826358-14.455817-2.409303-3.212404-6.826358-4.818606-10.841863-4.015505-2.007752 1.204651-4.015505 2.409303-5.621706 4.015505-7.227908 6.424808-14.054266 12.849615-20.880625 19.274422s-14.054266 12.849615-20.880624 19.274423c-1.606202 1.606202-4.015505 3.212404-6.826358 5.621706-29.714735 23.691478-57.421717 52.201561-39.351946 84.72715 1.204651 2.810853 0 6.424808-2.810854 8.031009-2.810853 1.204651-6.023257 0.40155-7.629459-2.409303-25.29768-45.375203 22.085276-83.522498 42.56435-99.986067 2.409303-2.007752 4.818606-4.015505 6.023257-5.220156 7.227908-6.424808 14.054266-12.849615 20.880625-19.274423s14.054266-12.849615 20.880624-19.274422c2.810853-2.810853 6.424808-5.220156 10.038762-6.826358 8.83411-2.409303 18.069771 0.40155 24.093029 7.227908 4.417055 5.621707 7.629459 11.644964 9.23566 18.471322l0.401551 0.803101c2.409303 6.826358 4.417055 13.652716 6.023257 20.880624 4.417055 15.660468 8.43256 30.517836 16.86512 44.170552 22.486826 36.139542 18.069771 90.348856-2.007753 102.796921-0.803101 1.204651-2.007752 1.606202-3.212403 1.606202zM501.982881 703.161174c-63.043424 0-141.345766-23.691478-202.782988-130.503903-12.448065-21.282175-21.282175-44.170552-26.502331-67.86203-18.069771-81.916296 22.085276-171.462051 94.765911-212.82175l2.409303-1.204651c63.444974-36.139542 181.500813-103.198471 318.831074-42.1628 48.587607 21.683725 83.120948 59.42947 103.198471 112.835683 27.305432 71.475984 19.675973 154.195381 7.629459 179.894611-7.227908 14.857367-16.86512 28.911634-27.706982 41.359698-52.201561 57.421717-111.22948 93.56126-176.280657 107.213976-3.212404 0.803101-7.227908 1.606202-11.243413 2.409303-20.077524 4.015505-48.989157 10.841863-82.317847 10.841863z m73.483737-467.003198c-84.727149 0-155.400032 40.155047-199.570585 65.051176l-2.409302 1.606202c-67.460479 38.147295-105.607774 124.079096-89.144205 199.972135 4.818606 22.888377 13.251166 44.572102 24.896129 64.649625 89.545755 155.400032 212.82175 126.889949 271.849669 113.237233 4.417055-0.803101 8.031009-2.007752 11.644964-2.409303 62.641873-13.251166 119.66204-48.186057 169.855849-103.198471 10.440312-11.644964 19.274423-24.494579 26.100781-38.147294 8.83411-19.274423 19.274423-98.379865-8.03101-170.658951-18.872872-50.193809-51.800011-85.53025-97.175214-106.009324-33.73024-16.062019-70.672883-24.093028-108.017076-24.093028z" fill="#757575" p-id="4621"></path><path d="M312.852609 449.381276c-5.621707 0-10.440312-2.810853-13.652716-7.227909-1.204651-0.803101-2.007752-2.007752-2.810853-3.212403-6.023257-6.023257-16.463569-16.062019-19.274422-26.903882-0.803101-3.212404 1.204651-6.424808 4.417055-7.227908 3.212404-0.803101 6.424808 1.204651 7.227908 4.417055 2.007752 7.629459 11.243413 16.463569 16.062019 21.282175l4.417055 4.417055c1.204651 1.606202 3.212404 2.810853 4.417055 2.409303h0.401551c0.803101 0 2.007752-1.204651 3.613954-2.409303 0.803101-0.803101 1.606202-1.204651 2.409303-2.007752 3.212404-2.409303 6.826358-4.417055 10.841863-6.023257 10.440312-6.424808 20.077524-14.857367 28.108533-24.093029 0.40155-0.40155 1.204651-1.204651 1.204651-1.606202-0.40155-0.803101-0.803101-2.007752-1.204651-2.810853-5.621707-11.243413-11.644964-21.683725-16.86512-31.722487s-11.243413-20.479074-17.26667-32.124038c-1.204651-3.212404 0-6.424808 3.212403-8.031009 2.810853-1.204651 6.023257 0 7.629459 2.810853 5.621707 11.243413 11.644964 21.683725 16.86512 31.722487s11.243413 20.479074 17.26667 32.124038c2.409303 3.212404 3.212404 7.629459 2.007753 11.644964-0.803101 2.409303-2.409303 4.818606-4.417056 6.424807-8.83411 10.440312-19.274423 19.274423-30.919386 26.502331l-0.40155 0.401551c-3.212404 1.204651-6.023257 2.810853-8.834111 4.818605-0.803101 0.40155-1.606202 0.803101-2.007752 1.606202-2.409303 2.810853-6.023257 4.417055-9.637211 4.818606h-2.810854zM408.421622 390.754907c-2.810853 0-5.621707-0.40155-8.43256-1.204651-2.409303-1.204651-4.015505-2.810853-5.220156-5.220156 0-0.40155 0-0.40155-0.401551-0.803101-20.880624-18.872872-38.548845-59.83102-43.367451-71.877535-1.204651-3.212404 0-6.826358 3.212404-8.031009s6.826358 0 8.031009 3.212404c9.637211 23.691478 25.29768 53.807763 40.556598 67.862029 1.606202 1.204651 2.007752 2.810853 2.810853 3.613955 0 0.40155 0 0.40155 0.401551 0.40155h2.409303c10.841863-1.606202 21.282175-5.220156 30.919386-10.038762 20.077524-8.83411 37.745744-17.668221 54.610864-26.903881 2.810853-1.204651 5.220156-2.810853 7.227908-5.220156 3.613954-4.417055 1.606202-12.448065-0.803101-19.274423l-0.40155-2.007752c-5.621707-18.069771-12.849615-42.56435-27.305432-61.838773-2.007752-2.810853-1.606202-6.424808 1.204651-8.43256s6.424808-1.606202 8.43256 1.204652c15.660468 21.282175 23.691478 46.981405 29.313185 65.452726l0.40155 1.606202c2.007752 6.023257 6.826358 20.479074-1.606202 30.919386-3.212404 3.212404-6.826358 6.023257-10.841863 8.03101-16.86512 9.235661-34.934891 18.471322-55.413965 27.305432-11.243413 5.621707-23.289927 9.235661-35.737991 11.243413zM552.578241 328.916135c-8.43256 0.40155-16.86512-2.810853-23.289928-8.43256-4.818606-5.621707-8.031009-12.046514-9.23566-19.274423v-0.40155c-1.606202-6.826358-5.220156-16.463569-8.43256-26.502331s-7.227908-21.683725-9.235661-29.313185c-0.803101-3.212404 1.204651-6.424808 4.417055-7.227908 3.212404-0.803101 6.424808 1.204651 7.227908 4.417055 1.606202 7.227908 5.621707 18.069771 8.834111 28.108533s6.826358 20.077524 8.83411 27.305432v0.40155c0.803101 5.220156 3.212404 10.038762 6.424808 14.054267 6.826358 7.227908 19.274423 5.220156 30.517836 2.810853 8.031009-2.007752 16.062019-3.613954 24.093028-5.220156s16.062019-3.212404 24.093028-5.220156c1.606202 0 3.212404-0.803101 4.417055-1.606202 0.803101-1.606202 1.204651-3.212404 1.204652-5.220156 0-21.282175-3.613954-42.162799-10.038762-62.240323-1.204651-3.212404 0-6.424808 3.212404-8.03101 3.212404-1.204651 6.424808 0 8.031009 3.212404 0 0.40155 0 0.40155 0.401551 0.803101 6.826358 21.683725 10.440312 44.170552 10.841862 66.657378 0 4.818606-1.606202 10.038762-4.818605 13.652716l-0.401551 0.401551c-2.810853 2.007752-6.424808 3.613954-10.038762 4.015505-7.629459 1.606202-15.660468 3.613954-23.691477 5.220156s-16.062019 3.212404-24.093029 5.220156c-6.424808 1.606202-12.849615 2.409303-19.274422 2.409303zM441.750311 513.227801c-4.417055 0-8.83411-1.606202-12.046514-4.417055-8.43256-4.818606-15.660468-11.243413-22.085276-18.471322-6.826358-7.227908-11.644964-16.062019-13.251166-25.69923-1.606202-11.243413 2.409303-20.880624 10.038762-24.896129s16.062019-2.007752 23.691478 5.220156c9.235661 9.235661 17.668221 19.675973 24.494578 30.919386 3.613954 5.621707 5.621707 12.046514 6.023257 18.872872v0.401551c-0.40155 8.031009-6.023257 16.86512-15.258917 17.66822-0.40155 0-0.803101 0.40155-1.606202 0.401551z m-35.336442-50.193809c1.606202 7.227908 4.818606 14.054266 10.038762 19.274423 5.621707 6.424808 12.046514 11.644964 19.274423 16.062018l0.40155 0.401551c1.606202 1.606202 4.015505 2.409303 6.023257 2.007752 2.007752 0 4.015505-3.212404 4.417055-6.424807-0.40155-4.417055-2.007752-8.83411-4.417055-12.448065-6.023257-10.440312-13.652716-20.077524-22.486826-28.510083-3.613954-3.212404-7.227908-4.417055-9.637212-3.212404-3.613954 3.613954-4.818606 8.43256-3.613954 12.849615zM657.382914 427.296c-4.417055 0-8.43256-1.204651-12.046515-3.613954-14.455817-8.43256-24.896129-22.486826-29.313184-38.950396-1.204651-4.417055-5.220156-20.880624 3.613954-28.911634 3.212404-2.810853 8.83411-5.621707 18.872872-2.409303 7.227908 3.212404 13.652716 8.83411 18.471322 15.258918 0.803101 1.606202 2.007752 3.212404 3.212404 4.417055 2.810853 4.015505 5.621707 8.031009 8.031009 12.448065 4.417055 6.424808 7.227908 14.054266 7.629459 21.683725-0.803101 10.038762-8.031009 20.077524-18.471321 20.077524z m-6.424808-14.054266c2.007752 1.204651 4.015505 2.007752 6.424808 2.007752 3.212404 0 5.621707-4.417055 6.023257-8.43256-0.40155-5.621707-2.409303-10.841863-6.023257-15.258918-2.409303-4.015505-5.220156-8.031009-7.629459-11.644964-1.204651-1.606202-2.007752-2.810853-3.212404-4.417055-3.212404-4.818606-7.629459-8.43256-12.849615-10.841862-3.212404-1.204651-5.621707-1.204651-6.424808-0.401551-2.007752 1.606202-2.409303 8.83411 0 17.26667 3.613954 13.251166 12.046514 24.896129 23.691478 31.722488zM439.742558 695.130164c-0.40155 0-1.204651 0-1.606202-0.40155-9.235661-2.409303-31.320937-24.494579-40.958148-48.587607-7.227908-18.471322-6.826358-35.336441 1.606202-48.989158 8.83411-14.857367 24.494579-21.683725 36.139543-24.494578 16.86512-4.015505 34.533341-6.424808 51.80001-7.629459l23.691478-2.409303c45.776754-5.621707 109.623279-22.486826 154.596932-69.869782l2.007752-2.409303c4.015505-4.818606 8.83411-9.235661 14.054266-13.251166 22.486826-16.463569 58.224818-11.644964 79.908544 10.440313 20.479074 20.880624 21.282175 50.193809 20.479074 75.893039 0 3.212404-2.810853 6.023257-6.023257 6.023257s-6.023257-2.810853-6.023257-6.023257c0.803101-24.494579 0-49.390708-17.26667-67.058929-15.258918-15.660468-44.170552-23.691478-63.846525-8.83411-4.417055 3.613954-8.43256 7.629459-12.448065 11.644963l-2.007752 2.409303c-47.382956 50.193809-114.441884 67.86203-161.82484 73.885287-8.031009 1.204651-16.062019 2.007752-23.691478 2.409303-16.86512 1.204651-33.73024 3.613954-50.193809 7.227908-9.235661 2.409303-22.085276 7.227908-28.911634 18.872872-6.023257 10.440312-6.424808 22.486826-1.204651 36.942644 8.83411 23.289927 29.313184 41.761249 33.328689 42.9659 3.212404 1.204651 4.818606 4.417055 4.015505 7.629459-0.803101 2.007752-3.212404 3.212404-5.621707 3.613954z" fill="#757575" p-id="4622"></path><path d="M630.880583 781.463515h-5.621707c-3.212404-0.40155-6.023257-3.212404-5.621707-6.424807 0.40155-3.212404 3.212404-6.023257 6.424808-5.621707 22.486826 1.606202 45.375203-8.031009 66.255828-18.471321 17.668221-8.83411 36.139542-18.471322 51.80001-32.525588 21.282175-19.274423 36.139542-44.973653 41.359699-73.082186 8.43256-43.367451 18.872872-86.734902 29.714735-125.283747 2.409303-8.43256 4.818606-16.86512 7.629459-24.896129 4.015505-12.448065 7.629459-25.29768 10.841862-37.745745 6.826358-27.305432 11.243413-55.815515 15.258918-83.120947 4.015505-30.116285 9.637211-60.232571 16.86512-89.947306 2.409303-9.235661 9.637211-37.745744 32.525588-44.572102 17.668221-5.621707 35.336441 4.417055 44.973653 16.86512s14.054266 28.911634 17.26667 42.56435c4.417055 19.274423-0.40155 32.927139-12.046514 36.942643-9.235661 3.613954-18.872872-2.007752-24.093028-8.43256-2.810853-4.417055-4.818606-9.235661-6.826358-14.455817-1.204651-2.409303-2.409303-6.023257-3.212404-8.031009h-0.40155c-2.810853-1.606202-4.015505-5.220156-2.409303-8.03101 1.204651-2.409303 3.613954-3.613954 6.023257-3.613954 5.220156 0.40155 6.826358 4.818606 11.243413 15.660468 1.606202 4.015505 3.212404 8.031009 5.220156 11.644964 2.409303 3.212404 6.424808 5.220156 10.440312 4.417055 6.424808-2.007752 6.424808-13.652716 4.417056-22.888377-2.810853-12.448065-6.424808-26.903882-14.857368-37.745744-7.227908-8.83411-20.077524-16.463569-32.124038-12.849615-11.243413 3.613954-18.872872 15.258918-24.494578 36.139543-7.227908 29.313184-12.849615 59.027919-16.46357 88.742654-3.613954 28.510083-8.83411 56.618616-15.660468 84.325599-3.212404 13.251166-7.227908 26.100781-11.243413 38.548845-2.409303 8.031009-5.220156 16.463569-7.227909 24.494579-10.841863 38.147295-21.282175 81.514746-29.714734 124.480646-6.023257 30.919386-22.085276 58.626369-45.375204 79.506993-16.463569 14.054266-34.533341 25.29768-54.209313 34.13179-20.880624 10.038762-43.367451 19.274423-66.657378 19.274422z" fill="#757575" p-id="4623"></path><path d="M959.348868 308.03551c-2.409303 0-4.417055-0.40155-6.826358-0.803101-3.212404-0.803101-5.220156-4.015505-4.417055-7.227908 0.803101-3.212404 4.015505-5.220156 7.227908-4.417056 8.83411 2.007752 17.668221-2.810853 21.282175-11.243413 2.007752-6.424808 2.007752-12.849615 0-19.274422-1.606202-8.83411-5.621707-16.86512-11.243413-23.691478-5.220156-6.424808-13.251166-9.637211-21.282175-9.637211-7.629459 0.40155-14.054266 5.220156-16.463569 12.448064-0.803101 3.212404-4.015505 5.220156-7.227909 4.417055s-5.220156-4.015505-4.417055-7.227908c3.613954-12.448065 14.857367-21.282175 27.706982-21.282175 11.644964 0 22.888377 4.818606 30.919387 13.652716 7.227908 8.031009 12.046514 18.069771 14.054266 28.510083 2.810853 8.43256 2.810853 18.069771-0.40155 26.502331-4.818606 11.644964-16.062019 18.872872-28.911634 19.274423z" fill="#757575" p-id="4624"></path><path d="M994.283759 292.776592c-2.409303 0-4.818606-0.40155-6.826358-1.606202-3.212404-1.204651-4.417055-4.818606-3.212404-8.031009s4.818606-4.417055 8.031009-3.212404c0 0 0.40155 0 0.401551 0.401551 0.40155 0.40155 0.803101 0.40155 1.204651 0.40155 0.40155-0.40155 0.803101-0.803101 1.204652-1.606202 0.803101-1.204651 2.007752-2.409303 3.212404-3.613954 4.015505-4.417055 6.023257-10.440312 6.424807-16.463569 1.204651-18.069771-12.448065-35.737992-28.911634-37.745745-5.621707-0.40155-12.849615 1.204651-14.455817 6.023257-1.204651 3.212404-4.818606 4.417055-8.031009 3.212404-3.212404-1.204651-4.417055-4.818606-3.212404-8.031009 4.417055-10.440312 16.86512-14.455817 26.903882-13.251166 22.888377 2.810853 40.958148 25.69923 39.351946 50.59536-0.40155 8.83411-3.613954 17.668221-9.637212 24.093028l-2.810853 2.810853c-2.007752 3.613954-5.621707 6.023257-9.637211 6.023257z" fill="#757575" p-id="4625"></path><path d="M1007.133374 283.942482c-2.810853 0-5.621707-2.409303-6.023257-5.220156-0.40155-3.212404 2.007752-6.424808 5.220156-6.826358 7.629459-0.803101 14.455817-5.220156 18.872872-11.644964 4.015505-6.424808 5.220156-14.054266 2.810853-21.282175-1.606202-5.621707-5.621707-10.440312-11.243413-12.849615-4.818606-2.007752-10.841863-1.204651-14.857367 2.409303-2.409303 2.409303-6.023257 2.409303-8.43256 0-2.007752-2.007752-2.409303-5.621707-0.401551-8.03101 7.227908-7.227908 18.069771-9.235661 27.706983-5.621706 8.83411 3.613954 15.660468 10.841863 18.471322 20.077523 3.613954 10.841863 2.007752 22.486826-4.417056 31.722488-6.023257 9.235661-16.062019 15.258918-26.903881 16.463569-0.40155 0.803101-0.40155 0.803101-0.803101 0.803101zM886.266682 258.644802c-3.212404 0-5.621707-2.409303-6.023257-5.220156-4.818606-34.533341 0-69.468231 14.054267-101.190719 3.613954-8.43256 8.43256-16.062019 14.857367-22.888377 7.227908-7.227908 17.26667-11.243413 27.706982-10.440312 14.455817 2.007752 26.903882 14.857367 29.714735 31.320937 2.810853 14.455817-0.803101 28.510083-4.015504 40.958148-1.204651 4.818606-2.409303 10.038762-3.613955 15.258918s-2.409303 10.038762-3.613954 15.258918c-0.803101 3.212404-4.015505 5.220156-7.227908 4.417055-3.212404-0.803101-5.220156-4.015505-4.417056-7.227908 1.204651-5.220156 2.409303-10.038762 4.015505-15.258918s2.409303-10.038762 3.613954-15.258918c2.810853-11.243413 6.023257-23.691478 4.015505-35.737992-1.606202-9.637211-8.43256-20.479074-19.274422-21.683726-6.826358 0-13.251166 2.409303-18.069772 7.227909-5.220156 5.621707-9.235661 12.046514-12.448064 19.274422-13.251166 29.714735-17.668221 62.240323-13.251166 94.364361 0.40155 3.212404-1.606202 6.424808-4.818605 6.826358H886.266682zM893.09304 995.489917c-3.212404 0-6.023257-2.810853-6.023257-6.023258-3.212404-209.609346 21.282175-418.817141 73.082186-622.001679l1.204651-4.015505 4.015505-0.40155c9.637211-1.204651 18.471322-6.023257 24.896129-12.849615 3.212404-3.212404 5.621707-6.826358 6.826358-11.243414 0.803101-4.015505 1.204651-7.629459 1.204652-11.644963-0.40155-12.448065-4.417055-24.093028-11.644964-34.13179-2.007752-2.810853-1.606202-6.424808 1.204651-8.43256s6.424808-1.606202 8.43256 1.204651c8.83411 12.046514 13.652716 26.100781 14.054267 40.958148 0 5.220156-0.803101 10.440312-2.007753 15.258918-2.007752 6.023257-5.220156 11.644964-9.637211 16.062019-7.629459 8.031009-17.26667 13.652716-28.108533 16.062019-50.99691 200.775236-75.089938 407.573728-71.877534 614.773771 0.40155 2.810853-1.606202 6.023257-4.417055 6.424808-0.40155 0-0.803101 0.40155-1.204652 0zM440.94721 983.443402c-24.896129 0-49.792258-6.826358-69.066681-24.093028-6.023257-5.621707-11.644964-11.644964-16.46357-18.069771-40.556598-54.610864-33.73024-120.063591-26.502331-153.79383 0.803101-3.212404 4.015505-5.220156 7.227909-4.417056 3.212404 0.803101 5.220156 4.015505 4.417055 7.227909-7.227908 32.124038-13.251166 93.159709 24.093028 144.156619 4.417055 6.023257 9.637211 11.243413 14.857368 16.463569 33.328689 29.313184 85.931801 24.494579 123.275994 6.023257 10.841863-4.417055 20.479074-11.243413 28.510084-19.274422 21.282175-22.486826 23.289927-57.421717 25.297679-85.931801 0.40155-3.212404 3.212404-6.023257 6.424808-5.621707 3.212404 0.40155 6.023257 3.212404 5.621707 6.424808-2.007752 30.116285-4.417055 67.86203-28.510084 93.159709-9.235661 9.235661-20.077524 16.463569-31.722487 21.683726-20.880624 10.440312-44.170552 15.660468-67.460479 16.062018z" fill="#757575" p-id="4626"></path><path d="M467.04799 860.970509c-2.007752 0-4.015505 0-6.023257-0.401551-13.652716-1.606202-26.100781-8.43256-34.53334-19.274422-8.43256-10.841863-12.046514-24.494579-10.440313-38.147295 0.40155-3.212404 3.613954-5.621707 6.826359-5.220156s5.621707 3.613954 5.220156 6.826358c-1.204651 10.440312 1.606202 20.880624 8.031009 29.313184 6.424808 8.031009 15.660468 13.251166 26.100781 14.455817 6.023257 0.803101 12.046514 0.40155 17.66822-1.204651 4.818606-0.803101 14.054266-3.613954 18.471322-9.637212 2.007752-3.613954 3.613954-7.629459 4.417055-11.644963 1.606202-8.031009 2.007752-16.463569 2.007753-24.494579-0.40155-3.212404 2.409303-6.023257 5.621706-6.424808 3.212404-0.40155 6.023257 2.409303 6.424808 5.621707 0.40155 9.235661-0.40155 18.471322-2.007753 27.305432-1.204651 5.621707-3.212404 11.243413-6.023257 16.062019-6.424808 9.235661-17.668221 12.849615-25.69923 14.455817-5.220156 1.606202-10.440312 2.409303-16.062019 2.409303z" fill="#757575" p-id="4627"></path><path d="M503.990634 805.556544c-10.038762 0-16.062019-6.023257-20.880625-12.448065-6.023257-8.031009-10.038762-17.26667-12.448064-26.903881-3.613954-10.841863-6.826358-23.289927 0-33.32869 5.220156-7.227908 13.652716-11.644964 22.486826-11.243413 8.031009 0.40155 15.660468 3.613954 22.085276 8.43256 4.417055 3.212404 8.031009 6.826358 11.243413 11.243413 17.26667-26.100781 40.958148-47.382956 68.665131-61.838772 21.683725-10.841863 33.328689-6.023257 38.950395 0 6.424808 7.227908 8.83411 17.26667 5.621707 26.502331-2.409303 6.826358-6.023257 13.251166-10.841863 18.872872l-1.204651 2.007752c-7.227908 9.637211-14.455817 18.872872-22.085276 28.510084s-14.455817 18.471322-21.683726 28.108533c-0.803101 1.204651-2.007752 2.409303-3.613954 3.212404-2.007752 0.803101-4.417055 0.803101-6.424807-0.401551-2.409303-1.204651-4.015505-4.015505-3.613955-6.826358 0.40155-2.810853 2.409303-4.818606 5.220157-5.621706 6.424808-8.43256 13.251166-17.26667 20.077523-25.699231 7.227908-9.235661 14.455817-18.872872 21.683726-28.108533l1.204651-2.007752c4.015505-4.417055 6.826358-9.637211 8.83411-15.258918 1.606202-4.818606 0.803101-10.440312-2.409303-14.455817-6.023257-6.023257-18.471322-1.204651-25.297679 2.409303-28.911634 14.857367-52.603112 37.344194-69.066681 65.452727l-5.621707 9.637211-5.220156-9.637211c-3.212404-6.424808-7.629459-11.644964-13.251166-15.660469-4.417055-3.613954-9.637211-5.621707-15.258917-6.023257-4.818606 0-9.235661 2.007752-12.046515 5.621707-3.613954 5.621707-1.204651 14.857367 1.606202 22.888377 2.409303 8.43256 6.023257 16.062019 10.841863 23.289927 5.220156 6.826358 8.43256 8.43256 14.455817 7.227909 3.212404-0.40155 6.424808 1.606202 6.826358 4.818605 0.40155 3.212404-1.606202 6.424808-4.818606 6.826358-1.204651 0-2.810853 0.40155-4.015504 0.401551z" fill="#757575" p-id="4628"></path><path d="M595.544141 808.367397c-1.606202 0-3.212404-0.803101-4.417055-2.007752-2.409303-2.409303-2.007752-6.023257 0-8.43256h0.40155c11.243413-10.440312 25.69923-25.69923 25.699231-40.958148-1.204651-3.613954-2.810853-6.826358-5.220157-9.637212-2.810853-0.40155-4.818606-2.409303-5.220156-5.220156-0.40155-3.212404 1.606202-6.023257 4.818606-6.424807h0.40155c2.810853 0 5.621707 0.803101 7.629459 2.810853 5.220156 5.220156 8.43256 11.644964 9.235661 18.872872 0 19.675973-15.660468 36.942643-29.714735 49.792259-0.803101 0.803101-2.409303 1.204651-3.613954 1.204651z" fill="#757575" p-id="4629"></path><path d="M610.401508 822.823214c-2.409303 0-4.417055-1.204651-5.621706-3.212404-1.204651-2.810853 0-6.424808 2.810853-8.031009 9.235661-4.818606 15.258918-13.652716 16.86512-23.691478 1.204651-10.440312-0.40155-13.251166-1.204651-14.054266h-0.401551c-3.212404-0.40155-6.023257-3.212404-5.621706-6.424808 0.40155-3.212404 3.212404-6.023257 6.424807-5.621707 3.613954 0 6.826358 1.606202 8.83411 4.417056 4.818606 5.621707 4.818606 15.258918 4.015505 23.289927-1.606202 14.455817-10.440312 26.903882-23.289927 33.328689h-2.810854z" fill="#757575" p-id="4630"></path><path d="M567.034058 871.009271c-3.613954 0-7.227908-1.606202-9.235661-4.417056-1.204651-2.007752-1.606202-4.818606-0.401551-7.227908 1.606202-2.810853 5.220156-4.015505 8.03101-2.810853 0.803101 0.40155 1.606202 1.204651 2.409303 2.007752 27.305432-0.40155 54.610864-16.86512 70.271332-41.761249 2.409303-3.212404 4.015505-7.227908 4.818606-11.243413 0.40155-3.212404-0.40155-6.424808-2.810854-8.43256-1.204651-0.803101-4.417055-0.803101-4.818605 0.40155-2.007752 2.810853-5.621707 3.613954-8.43256 1.606202-2.810853-2.007752-3.613954-5.621707-1.606202-8.43256 4.818606-7.227908 15.660468-7.629459 22.085276-3.212403 5.621707 4.417055 8.43256 11.644964 7.629459 18.872872-0.803101 6.023257-2.810853 11.644964-6.424808 16.865119-17.668221 29.313184-49.792258 47.784506-81.514745 47.784507zM366.660373 1024c-3.613954-0.40155-6.023257-3.212404-6.023258-6.424808 2.007752-24.093028 2.007752-48.587607 0-72.680635-0.40155-3.212404 2.409303-6.023257 5.621707-6.424807 3.212404-0.40155 6.023257 2.409303 6.424808 5.621706 2.007752 24.896129 2.007752 49.390708 0 74.286837-0.40155 2.810853-2.810853 5.220156-6.023257 5.621707z" fill="#757575" p-id="4631"></path></svg>