<?xml version="1.0" standalone="no"?><!DOCTYPE svg PUBLIC "-//W3C//DTD SVG 1.1//EN" "http://www.w3.org/Graphics/SVG/1.1/DTD/svg11.dtd"><svg t="1699364657156" class="icon" viewBox="0 0 1024 1024" version="1.1" xmlns="http://www.w3.org/2000/svg" p-id="4781" xmlns:xlink="http://www.w3.org/1999/xlink" width="200" height="200"><path d="M126.699 41.813A20.907 20.907 0 0 0 105.792 62.7v180.373c0 11.541 9.365 20.907 20.907 20.907h655.53a20.907 20.907 0 0 0 20.907-20.907V62.72a20.907 20.907 0 0 0-20.907-20.907H126.7z m0-41.813h655.53a62.699 62.699 0 0 1 62.699 62.699v180.373a62.699 62.699 0 0 1-62.699 62.699H126.7A62.699 62.699 0 0 1 64 243.072V62.72A62.699 62.699 0 0 1 126.699 0z m279.658 622.55a20.907 20.907 0 0 0-20.672 17.706l-43.072 279.979a20.907 20.907 0 0 0 9.92 21.098l41.92 25.152a107.37 107.37 0 0 0 110.464 0l41.92-25.152a20.907 20.907 0 0 0 9.92-21.098l-43.093-279.979a20.907 20.907 0 0 0-20.65-17.707h-86.657z m0-41.814h86.656a62.699 62.699 0 0 1 61.974 53.163l43.072 279.978a62.699 62.699 0 0 1-29.718 63.296l-41.92 25.152a149.163 149.163 0 0 1-153.472 0l-41.92-25.152a62.699 62.699 0 0 1-29.717-63.296L344.405 633.9a62.699 62.699 0 0 1 61.952-53.163z" fill="#d81e06" p-id="4782"></path><path d="M829.93 173.781a20.907 20.907 0 1 1 0-41.813h46.87a73.685 73.685 0 0 1 73.685 73.707v68.266c0 29.44-11.69 57.686-32.512 78.507a172.63 172.63 0 0 1-70.57 42.688L490.027 506.837a20.907 20.907 0 0 0-14.678 19.947v48.47a20.907 20.907 0 1 1-41.792 0v-48.47c0-27.435 17.835-51.67 44.011-59.84l357.397-111.701a130.816 130.816 0 0 0 53.483-32.363 69.242 69.242 0 0 0 20.267-48.939v-68.266c0-17.622-14.294-31.894-31.894-31.894h-46.89zM287.702 85.333a20.907 20.907 0 0 1 29.568 29.526l-112 112a20.907 20.907 0 0 1-29.568-29.526l112-112z m121.046 26.368a20.907 20.907 0 0 1 29.568 29.568l-74.667 74.667a20.907 20.907 0 0 1-29.547-29.568l74.667-74.667z" fill="#d81e06" p-id="4783"></path></svg>